<?xml version="1.0" standalone="no"?>
<!DOCTYPE svg PUBLIC "-//W3C//DTD SVG 20010904//EN"
 "http://www.w3.org/TR/2001/REC-SVG-20010904/DTD/svg10.dtd">
<svg version="1.0" xmlns="http://www.w3.org/2000/svg"
 width="2560.000000pt" height="1440.000000pt" viewBox="0 0 2560.000000 1440.000000"
 preserveAspectRatio="xMidYMid meet">

<g transform="translate(0.000000,1440.000000) scale(0.100000,-0.100000)"
fill="#000000" stroke="none">
<path d="M0 12435 l0 -1965 28 0 c31 0 46 9 55 30 4 8 4 -1 1 -20 -4 -19 -12
-38 -18 -42 -8 -5 -7 -11 2 -20 9 -9 12 -9 12 5 0 9 5 17 10 17 6 0 10 7 10
15 0 22 28 18 41 -6 6 -12 14 -17 18 -12 3 5 20 9 36 9 24 -1 30 3 30 21 0 24
14 44 16 22 1 -8 0 -20 -1 -28 -1 -12 3 -11 24 3 31 19 35 5 6 -24 -22 -22 -8
-39 16 -19 8 6 18 9 21 5 4 -4 1 -12 -7 -17 -12 -8 -11 -9 5 -7 12 2 21 12 23
26 5 36 32 28 28 -9 -3 -29 -2 -31 25 -25 27 5 29 4 23 -19 -7 -27 4 -33 24
-13 9 9 16 7 31 -6 18 -17 19 -17 24 1 3 13 5 11 6 -7 2 -24 2 -24 16 -6 11
15 15 16 16 5 1 -8 4 -3 8 10 4 14 13 27 20 29 9 3 11 -2 6 -17 -5 -16 -3 -20
8 -15 9 3 16 -3 20 -15 4 -16 11 -19 45 -15 41 3 75 -17 52 -31 -13 -8 -13
-25 0 -25 6 0 10 5 10 11 0 15 41 51 49 43 3 -4 0 -9 -6 -11 -21 -8 -15 -20
12 -27 14 -4 23 -11 20 -17 -5 -7 -12 -6 -21 2 -11 9 -19 8 -34 -6 -16 -15
-25 -16 -44 -7 -17 8 -23 7 -23 -1 1 -7 -2 -31 -7 -55 -8 -42 -8 -43 -43 -36
-33 6 -36 5 -31 -13 3 -12 2 -27 -3 -34 -7 -11 -9 -10 -9 4 0 10 -8 17 -19 17
-12 0 -24 11 -30 28 -8 18 -10 20 -7 5 2 -13 -2 -24 -11 -27 -10 -4 -13 -2
-10 6 3 8 -4 13 -19 13 -13 0 -24 -5 -24 -11 0 -7 -18 -9 -52 -6 -54 5 -78 18
-71 39 6 18 -13 24 -27 8 -6 -7 -18 -11 -27 -8 -12 5 -12 7 -1 14 10 7 8 9 -6
9 -13 0 -17 -5 -13 -20 3 -11 1 -18 -4 -14 -5 3 -9 12 -9 20 0 8 -4 14 -10 14
-5 0 -10 -4 -10 -10 0 -5 -4 -10 -10 -10 -5 0 -10 7 -10 15 0 8 -9 15 -20 15
-11 0 -20 -4 -20 -10 0 -16 -22 -12 -35 7 -11 14 -16 15 -28 5 -10 -9 -17 -10
-22 -2 -3 5 -15 10 -26 10 -11 0 -18 4 -14 9 3 5 1 12 -5 16 -7 4 -10 -273
-10 -853 0 -680 3 -859 13 -860 6 0 32 -6 56 -13 35 -10 46 -10 49 0 3 9 7 9
17 1 8 -6 35 -13 62 -15 26 -2 93 -11 148 -20 55 -9 127 -18 160 -19 33 -1 78
-5 100 -9 22 -4 65 -9 95 -12 30 -3 78 -8 105 -12 70 -9 79 -9 87 1 4 6 12 5
20 -1 17 -14 180 -35 211 -27 14 3 28 1 31 -4 3 -6 24 -8 46 -5 27 4 40 2 40
-6 0 -8 8 -10 21 -6 11 4 84 7 162 6 78 0 162 0 185 0 24 0 50 -5 58 -12 11
-9 14 -8 14 2 0 11 2 11 8 2 4 -7 32 -14 62 -16 30 -2 63 -7 72 -11 9 -4 21
-5 27 -2 5 4 48 -3 95 -14 47 -11 92 -17 100 -14 8 3 21 2 28 -2 13 -9 36 -13
88 -16 19 -2 37 -6 40 -10 6 -7 110 -26 180 -32 19 -2 51 -6 70 -10 19 -3 57
-8 83 -11 27 -3 53 -7 57 -10 5 -3 40 -8 77 -11 123 -8 178 -14 208 -20 17 -3
64 -7 105 -9 41 -3 113 -7 160 -10 47 -3 97 -6 112 -5 16 0 28 -3 28 -8 0 -5
14 -6 31 -4 20 3 34 0 40 -9 6 -9 9 -10 9 -2 0 12 90 15 90 3 0 -8 106 -4 119
4 6 4 11 3 11 -2 0 -5 20 -8 45 -7 25 0 45 -2 45 -5 0 -4 50 -6 110 -6 61 1
110 -2 110 -6 0 -5 7 -8 16 -8 8 0 13 4 10 8 -3 5 21 5 53 1 32 -5 73 -7 90
-4 23 3 34 -1 42 -17 10 -19 11 -19 31 -1 13 11 22 14 25 7 3 -8 16 -8 49 -1
35 8 51 8 66 -2 17 -11 22 -10 30 1 8 10 11 10 15 0 6 -15 73 -6 86 12 6 7 7
5 4 -5 -7 -22 39 -33 48 -11 4 11 8 12 20 2 12 -10 15 -10 15 0 0 8 8 10 24 6
17 -4 26 -1 30 11 4 10 10 13 14 8 9 -13 35 -13 44 0 5 6 17 4 35 -5 20 -12
57 -16 135 -15 60 0 108 -3 108 -7 0 -5 13 -8 28 -8 16 0 32 -3 35 -7 11 -10
61 -11 74 -1 7 6 19 6 30 0 10 -4 56 -8 103 -7 51 1 98 -3 117 -11 20 -8 35
-9 38 -3 4 5 15 3 28 -6 12 -8 26 -15 32 -15 5 0 3 5 -5 10 -13 8 -12 10 3 10
11 0 21 -9 24 -20 6 -22 30 -22 25 0 -1 6 3 10 10 7 7 -2 12 -12 12 -21 -2
-14 1 -14 13 -4 10 8 17 8 21 1 4 -5 25 -13 47 -17 22 -4 61 -14 87 -23 l48
-17 -31 -13 c-23 -10 -41 -11 -67 -3 -27 7 -38 6 -44 -2 -5 -9 -9 -7 -14 6 -5
13 -9 14 -14 5 -4 -6 -26 -12 -49 -12 -28 0 -41 -4 -41 -13 0 -8 -7 -14 -16
-14 -14 0 -14 3 -4 15 11 13 8 15 -21 12 -22 -2 -34 -8 -34 -17 0 -8 -9 -15
-20 -15 -11 -1 -25 -4 -31 -8 -6 -3 -95 -5 -197 -4 -126 2 -187 0 -187 -8 0
-5 -4 -4 -9 4 -7 11 -30 15 -79 15 -47 1 -67 -2 -62 -9 5 -6 6 -15 2 -20 -11
-16 -34 -17 -44 -3 -6 11 -10 10 -17 -1 -5 -7 -14 -10 -20 -7 -7 5 -11 -1 -11
-13 0 -12 6 -21 13 -21 6 -1 1 -9 -11 -20 -22 -18 -35 -19 -175 -14 -84 2
-179 6 -212 9 -149 10 -291 17 -430 21 -211 6 -306 15 -298 27 3 6 1 7 -6 3
-6 -4 -28 -2 -49 5 -20 7 -44 14 -52 15 -8 1 -26 6 -39 10 -16 5 -22 4 -18 -3
8 -13 -26 -7 -60 9 -12 6 -33 8 -47 6 -14 -3 -27 0 -30 7 -2 6 -21 12 -43 13
-51 2 -77 8 -105 23 -13 7 -30 14 -38 16 -8 1 -37 7 -65 13 -90 18 -269 49
-325 55 -103 12 -115 14 -170 24 -58 10 -174 22 -225 22 -16 0 -66 5 -110 10
-44 6 -123 14 -175 20 -52 5 -117 12 -145 15 -27 3 -72 7 -100 9 -27 1 -70 6
-95 9 -82 11 -353 35 -460 41 -58 3 -128 9 -156 13 -28 5 -78 8 -110 7 -33 -1
-63 1 -69 4 -5 3 -30 7 -55 7 -25 1 -79 5 -120 9 -41 4 -88 9 -105 10 -16 2
-30 4 -30 5 0 7 -184 32 -199 27 -6 -2 -20 0 -31 6 -23 12 -25 13 -130 22 -44
4 -86 12 -93 18 -6 5 -12 6 -12 2 0 -4 -6 -2 -14 4 -10 8 -16 9 -21 1 -3 -6
-11 -8 -16 -5 -5 4 -9 -69 -9 -183 0 -185 1 -190 20 -185 11 3 27 -1 36 -8 13
-10 17 -10 25 2 7 12 9 11 9 -2 0 -13 11 -17 47 -17 25 -1 51 -6 57 -12 5 -5
8 -10 5 -10 -2 -1 -26 -4 -54 -7 -27 -3 -71 -5 -97 -5 -48 1 -48 1 -48 -32 0
-31 3 -34 35 -40 19 -4 35 -12 35 -19 0 -7 4 -6 10 3 7 11 12 12 18 4 4 -6 25
-14 47 -18 22 -3 49 -8 60 -11 11 -2 40 -8 65 -11 25 -4 56 -15 69 -25 13 -11
32 -19 42 -19 10 0 21 -5 24 -10 4 -6 15 -8 26 -5 11 4 19 2 19 -4 0 -6 11
-11 24 -11 40 0 86 -12 86 -23 0 -6 -22 -7 -62 -2 -35 4 -81 9 -103 11 -52 4
-264 23 -337 30 -57 6 -58 6 -58 -20 0 -20 5 -26 23 -27 44 -2 92 -9 117 -16
31 -9 40 -10 65 -12 17 -1 18 -3 5 -11 -8 -5 -27 -10 -41 -10 -14 0 -29 -3
-32 -6 -4 -4 -36 -7 -72 -7 l-65 -1 0 -182 0 -182 83 -12 c84 -13 180 -47 171
-61 -2 -5 -11 -6 -18 -3 -8 3 -17 0 -21 -5 -3 -6 -11 -9 -16 -5 -5 3 -15 2
-22 -4 -7 -5 -49 -8 -94 -8 l-83 1 0 -51 0 -50 93 -22 c50 -12 117 -24 147
-27 115 -12 270 -39 270 -47 0 -4 9 -8 20 -8 10 0 24 -9 29 -19 9 -16 8 -18
-9 -14 -11 3 -27 0 -35 -7 -8 -7 -22 -9 -31 -6 -9 3 -20 3 -26 0 -6 -4 -71 -8
-146 -10 -74 -2 -137 -6 -140 -9 -11 -11 14 -24 48 -26 19 -2 40 -6 45 -10 6
-4 21 -7 35 -7 14 0 63 -5 110 -11 47 -6 164 -18 260 -26 96 -9 211 -20 255
-25 44 -6 83 -10 88 -10 4 0 6 -4 3 -8 -7 -12 151 -60 176 -54 4 1 53 -5 110
-13 57 -8 153 -17 213 -20 222 -12 387 -28 510 -50 44 -7 195 -17 335 -20 276
-8 312 -10 380 -18 25 -3 99 -8 165 -12 224 -11 440 -25 475 -31 35 -6 35 -6
10 -16 -22 -9 -13 -13 70 -29 146 -29 163 -34 168 -47 2 -8 -12 -12 -47 -13
-68 -2 -71 -2 -79 -14 -4 -5 -29 -11 -55 -12 -50 -3 -87 -17 -87 -33 0 -6 8
-10 17 -10 11 0 13 -3 8 -9 -6 -5 -64 -12 -130 -16 -66 -3 -137 -10 -159 -16
-21 -6 -45 -8 -53 -5 -9 4 -13 1 -11 -6 3 -7 22 -14 44 -16 21 -1 46 -6 54 -9
8 -4 22 -8 30 -10 248 -48 566 -78 1050 -98 58 -2 118 -8 132 -14 14 -5 29 -7
32 -4 3 4 6 1 6 -5 0 -7 -5 -12 -11 -12 -6 0 -9 -6 -7 -12 3 -8 26 -14 58 -15
29 -1 56 -6 59 -10 3 -5 22 -10 41 -12 19 -2 37 -7 40 -11 3 -4 57 -16 120
-26 63 -10 117 -21 120 -24 3 -4 21 -10 40 -13 19 -4 57 -13 84 -20 l50 -14
-86 -5 c-119 -8 -129 -18 -38 -39 72 -16 73 -17 30 -18 -25 -1 -85 -4 -135 -6
-49 -2 -142 -7 -205 -9 -63 -3 -117 -6 -120 -7 -3 -1 22 -7 55 -14 65 -15 9
-15 -506 1 -175 6 -210 4 -228 -9 l-22 -15 23 -5 c13 -3 70 -11 128 -17 58 -6
121 -13 140 -15 154 -19 276 -25 540 -30 168 -3 337 -10 375 -15 123 -18 235
-29 450 -45 116 -9 229 -18 251 -20 23 -2 149 -9 280 -15 262 -11 366 -18 372
-25 2 -2 -76 -2 -174 0 -141 3 -182 1 -194 -10 -12 -11 -74 -14 -282 -17 -147
-2 -270 -7 -274 -11 -14 -14 30 -35 106 -51 147 -32 399 -52 760 -61 134 -4
289 -15 410 -30 107 -13 242 -29 300 -35 58 -7 116 -13 130 -15 27 -4 247 -22
350 -30 36 -2 90 -7 120 -10 30 -3 84 -8 120 -11 36 -2 88 -6 115 -9 28 -3 84
-7 125 -10 41 -3 89 -8 105 -11 17 -3 55 -5 87 -5 40 0 58 -4 62 -14 6 -17 47
-20 62 -6 14 14 114 1 114 -15 0 -7 7 -17 16 -22 13 -7 14 -11 4 -17 -7 -4
-15 -2 -19 4 -8 13 -71 -4 -83 -23 -5 -7 -8 -3 -8 8 0 15 -3 16 -15 6 -8 -7
-15 -9 -15 -4 0 13 -56 9 -73 -4 -10 -9 -18 -7 -35 8 -24 23 -33 25 -30 8 3
-15 -129 -14 -227 1 -33 5 -130 12 -215 16 -85 3 -168 8 -185 10 -16 2 -102 7
-190 10 -345 12 -610 25 -925 46 -228 15 -378 8 -400 -20 -14 -18 -32 -20
-235 -26 -121 -3 -245 -10 -275 -14 l-55 -7 45 -7 c25 -4 87 -9 139 -12 52 -3
97 -8 100 -9 3 -2 40 -7 81 -11 41 -4 86 -9 100 -10 137 -18 434 -41 621 -50
80 -3 132 -14 141 -29 6 -8 8 -7 8 1 0 9 17 11 62 8 71 -6 90 -15 30 -15 -22
0 -43 -4 -46 -8 -3 -5 25 -5 61 0 37 4 69 6 71 4 2 -3 -10 -12 -26 -20 -33
-17 -171 -15 -182 3 -3 6 -28 12 -55 15 -61 6 -319 7 -358 2 -32 -5 -48 -15
-26 -17 8 -1 -1 -5 -20 -9 -39 -9 -151 -1 -151 11 0 4 20 7 45 6 25 -1 45 -5
45 -8 0 -4 10 -5 23 -4 35 4 37 5 37 14 0 5 -37 12 -82 15 -46 3 -114 10 -153
15 -168 23 -377 34 -419 21 -42 -13 -645 -16 -731 -4 -51 7 -84 10 -226 23
-63 6 -135 13 -160 15 -57 6 -163 15 -264 21 -44 3 -141 10 -215 16 -306 23
-557 33 -795 31 -76 -1 -81 -3 -25 -13 26 -4 -13 -6 -95 -3 -234 8 -338 15
-384 25 -59 13 -105 16 -566 39 -448 23 -632 36 -720 51 -82 14 -85 15 -380
28 -337 16 -885 4 -885 -18 0 -4 66 -13 148 -20 81 -7 192 -17 247 -22 55 -5
161 -12 235 -16 74 -3 138 -8 142 -12 4 -3 -131 -8 -300 -9 -184 -2 -311 -7
-318 -13 -7 -6 -44 -13 -83 -16 l-71 -6 0 -2663 0 -2664 12800 0 12800 0 0
7200 0 7200 -12800 0 -12800 0 0 -1965z m3040 -733 c0 -4 -20 -12 -45 -18 -50
-11 -51 -5 -2 13 39 14 47 15 47 5z m-123 -38 c-3 -3 -12 -4 -19 -1 -8 3 -5 6
6 6 11 1 17 -2 13 -5z m-2867 -1159 c0 -8 -4 -15 -10 -15 -5 0 -10 7 -10 15 0
8 5 15 10 15 6 0 10 -7 10 -15z m105 -26 c11 -16 1 -19 -13 -3 -7 8 -8 14 -3
14 5 0 13 -5 16 -11z m195 8 c0 -2 -10 -12 -21 -23 -22 -19 -22 -19 -10 4 10
18 31 31 31 19z m175 -87 c-3 -5 -16 -10 -28 -9 -21 0 -21 1 -2 9 28 12 37 12
30 0z m95 -35 c0 -8 -4 -15 -10 -15 -5 0 -10 7 -10 15 0 8 5 15 10 15 6 0 10
-7 10 -15z m190 -90 c10 -12 5 -17 -26 -30 -26 -10 -41 -12 -48 -5 -7 7 -2 10
15 10 31 0 53 15 45 29 -10 16 -1 14 14 -4z m90 -21 c-15 -17 -17 -17 -23 -1
-3 8 3 14 15 14 16 2 17 -1 8 -13z m-180 -23 c0 -14 -5 -18 -20 -14 -23 6 -26
19 -7 26 22 9 27 7 27 -12z m243 -6 c-3 -9 -8 -14 -10 -11 -3 3 -2 9 2 15 9
16 15 13 8 -4z m-163 -6 c0 -8 4 -8 14 0 11 9 16 9 21 1 12 -20 -10 -33 -34
-21 -22 12 -29 31 -11 31 6 0 10 -5 10 -11z m-107 -20 c13 -17 19 -19 36 -9
22 11 41 6 41 -11 0 -5 -12 -9 -27 -9 -22 0 -25 -2 -13 -10 8 -5 27 -10 43
-10 15 0 27 -5 27 -11 0 -16 -82 0 -97 19 -11 14 -13 12 -13 -11 0 -26 -9 -34
-23 -20 -4 3 -2 12 4 20 9 10 8 13 -5 13 -9 0 -16 -5 -16 -11 0 -5 -4 -8 -9
-5 -5 3 -7 14 -4 25 3 13 11 17 26 13 18 -4 20 -2 10 9 -7 7 -13 17 -13 21 0
15 19 8 33 -13z m227 1 c0 -5 -4 -10 -10 -10 -5 0 -10 5 -10 10 0 6 5 10 10
10 6 0 10 -4 10 -10z m50 -10 c0 -5 -5 -10 -11 -10 -5 0 -7 5 -4 10 3 6 8 10
11 10 2 0 4 -4 4 -10z m-136 -41 c-6 -11 -44 8 -44 21 0 6 10 5 25 -2 13 -6
22 -15 19 -19z m95 0 c-16 -10 -23 -4 -14 10 3 6 11 8 17 5 6 -4 5 -9 -3 -15z
m-332 5 c-3 -3 -12 -4 -19 -1 -8 3 -5 6 6 6 11 1 17 -2 13 -5z m30 -20 c-3 -3
-12 -4 -19 -1 -8 3 -5 6 6 6 11 1 17 -2 13 -5z m17133 -142 c0 -7 -4 -10 -10
-7 -5 3 -10 16 -10 28 0 18 2 19 10 7 5 -8 10 -21 10 -28z m-414 -116 c9 -37
1 -61 -21 -61 -16 0 -21 8 -23 43 -3 37 -1 42 17 42 13 0 23 -9 27 -24z m-56
-26 c0 -33 -15 -48 -24 -24 -8 21 4 65 15 58 5 -3 9 -18 9 -34z m-387 -50 c3
-11 1 -23 -4 -26 -5 -3 -9 6 -9 20 0 31 6 34 13 6z m432 -25 c0 -10 -6 -20
-12 -22 -8 -3 -13 5 -13 22 0 17 5 25 13 23 6 -3 12 -13 12 -23z m-429 -72
c-1 -52 -26 -56 -26 -4 0 28 4 41 14 41 9 0 13 -12 12 -37z m-495 -150 c0 -16
2 -35 3 -43 10 -49 10 -244 0 -247 -7 -2 -11 20 -12 64 -2 59 -6 122 -17 226
-1 17 2 27 11 27 8 0 14 -11 15 -27z m-74 -119 c1 -123 -6 -105 -21 55 -6 58
-5 72 6 69 10 -4 13 -35 15 -124z m828 -264 c7 -11 -31 -51 -39 -42 -3 3 -6
-3 -6 -12 0 -12 -5 -16 -15 -12 -9 3 -15 0 -15 -9 0 -8 -4 -15 -8 -15 -14 0
-12 79 3 87 21 12 74 13 80 3z m-105 -32 c0 -13 -4 -29 -9 -36 -6 -10 -9 -8
-13 10 -2 13 -3 29 0 36 6 20 22 13 22 -10z m145 -5 c-2 -10 -4 -19 -4 -21 -1
-1 -11 3 -23 9 -22 12 -22 12 -3 20 30 12 34 11 30 -8z m-328 1 c-3 -3 -12 -4
-19 -1 -8 3 -5 6 6 6 11 1 17 -2 13 -5z m43 -40 c0 -19 -4 -34 -10 -34 -5 0
-10 18 -10 41 0 24 4 38 10 34 6 -3 10 -22 10 -41z m88 22 c-13 -14 -28 -12
-28 5 0 5 9 9 20 9 17 0 19 -2 8 -14z m-148 -12 c0 -8 5 -12 10 -9 6 3 10 -1
10 -9 0 -9 -4 -16 -10 -16 -5 0 -10 -7 -10 -15 0 -21 -31 -35 -46 -21 -18 18
4 82 28 83 10 1 18 -5 18 -13z m107 -16 c-3 -8 -6 -5 -6 6 -1 11 2 17 5 13 3
-3 4 -12 1 -19z m-340 -32 c9 -69 -12 -89 -94 -91 -37 0 -43 2 -43 20 0 18 -2
17 -13 -5 -7 -14 -20 -25 -28 -25 -9 0 -24 -6 -33 -14 -14 -11 -17 -10 -25 10
-5 13 -10 18 -10 11 -1 -7 -5 -10 -11 -7 -17 11 -11 54 9 65 17 8 20 6 26 -21
5 -23 12 -29 28 -27 11 2 23 9 25 17 3 10 0 12 -12 8 -19 -7 -19 -6 -6 27 11
31 26 33 33 6 3 -11 10 -20 17 -20 7 0 9 8 5 19 -6 19 18 47 33 37 5 -3 18 1
28 9 10 8 30 14 43 12 19 -1 25 -9 28 -31z m123 -11 c0 -5 -5 -3 -10 5 -5 8
-10 20 -10 25 0 6 5 3 10 -5 5 -8 10 -19 10 -25z m260 19 c0 -8 -5 -12 -10 -9
-6 4 -8 11 -5 16 9 14 15 11 15 -7z m-307 -26 c10 2 17 -3 17 -12 0 -9 -6 -13
-14 -10 -7 3 -16 -2 -20 -11 -8 -23 -26 -9 -26 21 0 18 4 23 13 17 6 -4 20 -6
30 -5z m557 -60 c0 -5 10 -8 23 -9 43 -1 -13 -16 -71 -18 -29 -1 -64 -6 -78
-11 -13 -5 -31 -7 -39 -4 -21 8 -19 42 3 46 31 7 162 4 162 -4z m-280 -32 c0
-29 -23 -36 -161 -51 -19 -2 -54 -8 -78 -15 -23 -6 -45 -9 -49 -6 -4 2 -12 -2
-19 -9 -10 -10 -9 -14 2 -19 8 -3 15 -1 15 4 0 18 45 3 48 -16 3 -16 1 -16 -7
-4 -5 8 -13 11 -18 7 -4 -4 7 -20 25 -35 23 -20 29 -31 22 -42 -14 -23 -12
-56 5 -70 13 -11 14 -10 9 4 -3 9 -1 52 6 95 12 76 13 79 42 85 60 12 95 7
101 -13 2 -11 0 -24 -5 -29 -6 -6 -3 -15 7 -26 9 -9 15 -22 13 -28 -3 -7 2
-19 10 -27 12 -12 12 -15 -2 -23 -9 -5 -23 -8 -32 -6 -9 2 -19 -3 -21 -9 -3
-9 7 -13 31 -13 28 0 36 -4 36 -18 0 -10 4 -22 9 -27 4 -6 11 -22 15 -37 5
-21 2 -30 -14 -38 -12 -6 -28 -10 -38 -9 -35 3 -52 -1 -52 -14 0 -11 11 -12
45 -7 24 4 50 3 57 -1 6 -4 16 -5 21 -2 5 3 7 -3 5 -13 -2 -13 -20 -22 -63
-32 -95 -23 -93 -22 -73 -33 12 -7 25 -6 39 1 25 14 27 13 31 -25 3 -28 0 -31
-39 -39 -24 -6 -43 -16 -43 -23 0 -7 5 -13 10 -13 6 0 10 4 10 8 0 5 7 9 16 9
13 0 15 -8 11 -43 -3 -28 0 -50 9 -61 12 -16 13 -16 14 -2 0 9 9 19 20 22 26
7 36 -10 11 -18 -12 -4 -18 -12 -14 -20 3 -8 9 -13 13 -10 5 3 11 1 15 -5 3
-5 2 -10 -4 -10 -6 0 -6 -11 0 -32 6 -22 5 -34 -3 -39 -6 -4 -8 -15 -4 -24 8
-23 -11 -55 -34 -55 -28 0 -51 -11 -44 -21 3 -5 10 -7 15 -3 7 4 8 -6 4 -28
-3 -18 -1 -53 4 -78 l9 -45 1 58 c2 88 29 125 53 72 7 -15 20 -25 32 -25 20 0
21 4 19 142 -1 82 3 148 8 154 7 9 4 14 -9 18 -25 8 -18 52 13 84 29 29 37 59
20 76 -8 7 -11 17 -7 20 3 4 -1 4 -11 0 -9 -3 -17 -2 -17 4 0 22 13 42 26 42
11 0 14 19 14 85 0 67 3 85 14 85 8 0 21 3 29 6 11 4 17 -4 22 -27 11 -48 23
-17 17 44 -2 29 -9 58 -15 65 -8 10 -5 11 17 3 14 -6 26 -7 26 -2 0 4 11 13
25 19 17 8 25 8 25 1 0 -6 9 -8 20 -4 11 4 20 2 20 -4 0 -6 7 -11 16 -11 12 0
15 -7 11 -26 -3 -18 -1 -24 9 -20 19 7 18 -3 -3 -26 -9 -10 -11 -18 -5 -18 14
0 2 -41 -14 -47 -27 -10 -14 -19 21 -15 40 5 78 -20 68 -44 -3 -8 -1 -14 5
-14 6 0 12 5 14 11 2 5 11 7 21 4 12 -5 15 -14 11 -31 -4 -15 -2 -24 5 -24 8
0 8 -4 -1 -14 -8 -8 -15 -10 -19 -4 -4 7 -9 6 -13 -1 -10 -16 -26 -14 -26 4 0
20 -16 19 -24 -2 -5 -11 -1 -22 10 -30 10 -7 14 -16 9 -20 -4 -5 -10 -2 -12 5
-3 6 -11 12 -18 12 -8 0 -11 8 -8 23 4 21 4 21 -8 3 -9 -15 -9 -24 0 -37 6
-11 11 -25 11 -33 0 -9 7 -12 18 -10 13 4 17 -1 17 -25 0 -33 -15 -53 -44 -58
-20 -3 -30 19 -31 67 -1 24 -2 24 -10 4 -5 -12 -7 -30 -6 -40 2 -13 -9 -27
-33 -41 l-36 -23 43 0 c23 0 42 5 42 10 0 6 12 10 28 9 l27 -1 -25 -8 c-17 -6
-19 -8 -7 -9 10 -1 30 -9 45 -18 20 -13 24 -14 15 -3 -9 12 -7 15 14 17 15 0
21 -2 14 -6 -8 -5 -10 -18 -5 -35 5 -21 9 -24 15 -14 7 11 9 11 9 -1 0 -14
-50 -58 -62 -53 -5 1 -8 -5 -8 -13 0 -17 36 -39 50 -30 6 4 17 0 25 -9 17 -17
20 -30 5 -21 -5 3 -10 1 -10 -4 0 -6 -7 -11 -15 -11 -8 0 -15 -8 -15 -17 0
-15 -2 -16 -10 -3 -6 9 -5 20 3 29 10 12 9 14 -5 8 -9 -3 -19 -1 -22 6 -3 7
-3 -8 0 -33 7 -54 11 -60 30 -60 8 0 13 4 9 9 -6 11 45 67 58 63 10 -3 9 5 -4
31 -9 21 -9 21 5 3 8 -10 19 -15 25 -11 7 3 8 0 5 -9 -3 -9 -1 -16 5 -16 6 0
11 4 11 8 0 4 9 8 19 9 14 1 18 -3 14 -13 -3 -8 -8 -14 -12 -14 -3 0 -7 -11
-7 -25 -1 -14 -7 -32 -14 -40 -15 -18 -63 -16 -56 2 3 7 1 15 -4 18 -6 4 -10
1 -10 -5 0 -6 -4 -9 -8 -6 -5 3 -18 -3 -28 -13 -11 -10 -26 -21 -34 -24 -8 -3
3 -6 25 -6 27 -1 36 -4 26 -10 -9 -6 -11 -16 -7 -27 7 -17 9 -16 23 10 13 25
16 27 30 13 17 -17 11 -87 -7 -87 -6 0 -10 -7 -10 -15 0 -18 5 -18 31 -5 13 8
19 7 19 0 0 -6 3 -9 8 -7 4 3 8 -11 9 -31 1 -30 0 -32 -6 -12 -7 24 -41 42
-41 21 0 -6 -7 -11 -16 -11 -8 0 -12 -4 -9 -10 3 -5 17 -10 31 -10 17 0 24 -5
24 -20 0 -22 -35 -29 -43 -7 -4 10 -7 10 -18 0 -9 -10 -10 -13 -1 -13 7 0 12
-5 12 -10 0 -6 -6 -10 -12 -9 -26 3 -38 -1 -38 -15 0 -9 10 -12 33 -10 26 3
35 -1 49 -23 16 -26 15 -27 -20 -45 -20 -10 -37 -18 -38 -18 -2 0 -4 15 -6 32
-2 24 -9 34 -23 36 -16 3 -18 1 -7 -9 17 -18 15 -39 -5 -62 -12 -13 -14 -21
-7 -24 13 -4 6 -55 -10 -65 -7 -5 -5 -8 6 -8 11 0 15 -6 11 -22 -4 -23 -4 -23
9 -2 l13 21 23 -22 23 -22 -45 -13 c-24 -7 -47 -18 -50 -26 -7 -17 6 -18 23
-1 10 10 11 9 6 -5 -10 -24 10 -23 35 2 25 25 37 25 43 3 3 -10 5 -3 6 15 0
19 5 31 11 27 5 -3 7 -18 4 -34 -4 -19 -2 -28 8 -28 7 0 18 -2 23 -3 17 -4 55
12 56 24 1 6 0 45 -1 87 -2 85 3 92 58 77 31 -8 32 -11 32 -58 0 -28 5 -50 10
-50 14 0 12 -19 -2 -33 -7 -7 -26 -17 -43 -22 -17 -6 -31 -18 -31 -28 -2 -12
-1 -13 3 -2 3 10 17 15 41 15 25 0 33 -3 23 -9 -9 -6 -12 -19 -8 -40 4 -18 0
-45 -8 -65 -19 -44 -19 -47 0 -40 16 7 20 -7 16 -65 -2 -23 1 -31 9 -26 6 4 9
14 6 22 -3 8 -2 11 3 8 14 -8 17 33 8 95 -4 30 -7 68 -5 85 3 28 6 30 45 31
23 1 40 -2 38 -7 -3 -4 1 -9 9 -11 11 -2 11 -11 1 -53 -15 -56 -13 -64 11 -44
16 13 16 12 6 -8 -17 -32 -16 -66 3 -59 21 8 19 -11 -2 -23 -10 -6 -15 -11
-11 -11 7 0 -68 -80 -76 -80 -2 0 -6 17 -8 38 l-4 37 -17 -37 c-12 -27 -22
-36 -38 -35 -12 1 -24 9 -27 19 -2 10 -8 18 -13 18 -19 0 -8 31 15 42 14 6 27
17 30 24 8 22 -6 17 -38 -12 -22 -21 -30 -24 -36 -14 -6 9 -10 2 -12 -21 -3
-29 -6 -34 -25 -31 -16 2 -23 -2 -23 -12 0 -9 -4 -16 -9 -16 -18 0 -23 21 -10
36 7 9 14 35 14 59 2 41 0 44 -24 42 -28 -2 -26 -9 -32 111 -2 60 -11 78 -23
47 -3 -8 -2 -15 3 -15 4 0 6 -11 3 -25 -2 -14 -8 -22 -13 -20 -4 3 -5 -10 -2
-29 3 -19 1 -36 -6 -40 -7 -5 -11 6 -11 34 0 50 -24 51 -27 1 -1 -18 -4 -39
-7 -47 -3 -8 0 -14 8 -14 9 0 12 -8 8 -25 -2 -14 -8 -22 -13 -19 -5 3 -9 0 -9
-5 0 -6 9 -11 20 -11 15 0 20 7 20 29 0 20 6 31 18 33 20 4 63 -32 45 -39 -7
-2 -9 -11 -6 -18 4 -11 10 -12 24 -4 25 13 24 4 -1 -24 -11 -12 -18 -27 -16
-34 3 -7 -3 -17 -12 -23 -15 -10 -14 -11 6 -7 12 3 22 2 22 -3 0 -4 9 -10 21
-13 27 -7 23 -54 -4 -49 -16 3 -17 0 -7 -19 10 -18 8 -25 -14 -48 -23 -22 -28
-24 -37 -11 -8 11 -12 12 -16 3 -2 -7 -8 -13 -12 -13 -5 0 1 19 13 43 18 38
23 41 34 28 11 -14 11 -13 2 7 -9 18 -8 22 5 22 8 0 15 9 15 20 0 13 -7 20
-20 20 -13 0 -20 -7 -20 -19 0 -10 -7 -32 -15 -47 -14 -27 -15 -27 -15 -6 0
13 -6 22 -15 22 -9 0 -15 -10 -16 -22 -1 -17 -2 -19 -6 -5 -2 9 -13 17 -22 17
-14 0 -17 -6 -13 -25 3 -18 -2 -31 -19 -45 l-24 -20 120 2 120 3 -3 67 c-3 56
0 73 18 97 13 19 26 28 35 24 19 -7 19 -23 0 -23 -8 0 -15 -4 -15 -9 0 -4 11
-7 24 -6 19 2 23 -1 19 -16 -3 -10 -9 -19 -13 -19 -4 0 -11 -7 -14 -16 -6 -17
27 -68 38 -57 12 12 6 -23 -6 -36 -11 -11 -7 -13 20 -9 18 3 35 1 38 -4 3 -4
2 -8 -3 -9 -87 -8 -127 -3 -116 15 4 6 0 6 -9 -2 -12 -9 -69 -12 -224 -12
-115 1 -218 3 -229 6 -16 4 -20 13 -19 42 1 20 -2 46 -7 57 l-8 20 -1 -20 c-2
-11 -2 -26 -1 -32 1 -7 -3 -13 -10 -13 -6 0 -9 -6 -6 -14 6 -15 -31 -26 -84
-26 -17 0 -28 -5 -27 -11 2 -7 -10 -15 -25 -20 -23 -6 -28 -5 -23 7 3 8 -1 14
-9 14 -8 0 -15 -7 -15 -15 0 -8 -2 -15 -4 -15 -2 0 -11 -3 -20 -6 -10 -4 -16
-1 -16 10 0 10 6 13 15 10 8 -4 15 -1 15 5 0 6 -7 11 -15 11 -11 0 -15 12 -15
47 l0 47 -20 -22 c-11 -12 -20 -29 -21 -39 0 -11 -3 -13 -6 -5 -2 6 -11 12
-19 12 -9 0 -12 5 -9 10 3 6 1 10 -4 10 -6 0 -10 -18 -9 -41 2 -46 -9 -57 -59
-57 -18 0 -39 -5 -47 -11 -7 -6 -48 -13 -90 -16 -43 -3 -96 -10 -119 -15 -23
-6 -69 -12 -102 -15 -149 -11 -330 -48 -393 -81 -15 -8 -30 -14 -33 -14 -11 0
4 115 18 136 7 12 18 50 24 85 6 35 17 74 25 87 8 13 17 44 19 70 7 82 14 114
28 131 16 19 20 61 6 61 -14 0 -11 36 5 49 8 7 17 24 21 39 9 35 23 52 44 52
10 0 30 14 46 30 16 17 24 30 19 30 -5 0 -15 -9 -21 -19 -13 -21 -37 -21 -72
1 -28 17 -27 36 4 48 14 5 25 12 25 15 0 4 -4 3 -10 0 -25 -15 -7 29 23 56 27
25 29 31 17 39 -8 5 -19 10 -24 10 -10 0 1 64 19 105 13 29 13 29 14 5 0 -14
-3 -42 -8 -62 -11 -45 -4 -54 22 -31 15 13 21 15 24 6 3 -8 14 -11 29 -7 26 7
34 -10 9 -20 -8 -3 -15 -15 -15 -26 0 -11 -4 -20 -10 -20 -20 0 -9 -29 12 -32
31 -4 34 -32 6 -46 -13 -6 -18 -11 -12 -11 17 -1 5 -47 -17 -67 -10 -9 -19
-23 -19 -31 0 -11 8 -9 30 7 25 18 30 29 31 63 1 40 2 40 9 12 l8 -30 1 30 c1
26 3 28 12 12 10 -17 12 -17 25 9 10 18 11 31 5 37 -6 6 -1 22 16 44 14 18 22
37 18 41 -4 4 -10 1 -12 -6 -3 -7 -13 -17 -24 -22 -17 -10 -19 -7 -19 24 0 27
3 34 15 30 9 -4 15 0 15 9 0 8 8 17 18 20 9 2 25 8 34 12 15 6 16 0 12 -45 -2
-28 -6 -55 -9 -60 -3 -4 -7 -25 -11 -45 -3 -21 -12 -45 -20 -52 -8 -8 -14 -21
-14 -29 0 -13 2 -13 14 -2 7 8 20 27 29 44 8 16 27 36 41 43 29 16 24 35 -6
25 -17 -5 -20 -3 -15 11 4 9 7 20 7 24 0 5 12 20 26 35 22 21 24 26 9 26 -16
0 -16 2 -1 25 9 14 14 25 11 25 -3 0 -1 9 5 20 9 16 8 19 -7 14 -17 -5 -17 -5
0 9 21 18 22 27 1 27 -8 0 -13 4 -10 9 3 5 8 29 11 52 3 24 9 58 14 74 4 17 9
55 10 85 1 30 7 61 14 68 6 8 10 32 8 53 -2 32 1 39 16 40 16 1 17 2 1 6 -10
2 -18 13 -18 23 0 11 8 24 18 30 12 8 13 13 5 16 -20 9 -15 24 7 24 16 0 20 6
19 33 0 30 -1 30 -10 9 -14 -37 -27 -17 -19 33 4 26 15 52 26 61 18 14 17 15
-18 12 -35 -4 -38 -2 -38 20 0 38 21 100 36 106 8 3 13 -1 12 -12 -3 -39 2
-63 13 -56 6 3 8 16 5 28 -7 29 7 48 38 49 33 2 34 27 1 27 -22 0 -25 4 -25
34 0 25 5 35 20 39 12 3 20 14 20 26 0 15 10 23 40 32 22 7 40 15 40 19 0 7
-71 -3 -100 -15 -11 -4 -16 1 -17 14 -1 16 13 24 83 46 47 15 92 24 101 21 9
-4 21 -2 27 4 16 13 225 53 242 46 7 -3 16 -1 19 4 10 16 15 11 15 -14z m55
15 c-3 -5 0 -13 6 -17 8 -5 7 -9 -2 -15 -18 -10 -29 -2 -29 22 0 11 7 19 16
19 8 0 13 -4 9 -9z m-754 -10 c6 10 10 9 15 -5 5 -12 2 -23 -9 -31 -10 -7 -17
-20 -17 -29 0 -24 -13 -19 -37 15 -17 24 -19 34 -10 44 9 9 17 10 31 3 13 -7
21 -6 27 3z m943 -27 c9 -4 16 -18 16 -34 0 -24 -5 -29 -37 -34 -21 -3 -47 -8
-58 -10 -11 -2 -23 -4 -27 -5 -5 0 -8 -5 -8 -11 0 -5 -10 -20 -21 -31 -16 -16
-18 -23 -9 -29 9 -6 7 -11 -7 -18 -14 -8 -23 -8 -31 0 -8 8 -15 8 -25 -1 -11
-9 -17 -8 -27 4 -7 8 -9 15 -4 15 5 0 2 5 -6 10 -12 8 -11 10 8 10 12 0 22 -4
22 -10 0 -17 18 -11 25 8 3 11 16 24 29 30 21 9 33 42 14 42 -4 0 -8 -7 -8
-15 0 -8 -7 -15 -16 -15 -8 0 -12 5 -9 10 9 15 -2 12 -19 -6 -14 -14 -18 -14
-31 0 -8 8 -15 25 -15 38 0 17 6 23 24 24 18 1 23 -2 20 -15 -5 -13 -3 -13 6
2 6 9 16 15 21 11 5 -3 17 0 25 7 19 16 34 -3 27 -32 -9 -31 14 -21 26 11 13
38 57 59 95 44z m76 -8 c0 -11 -19 -15 -25 -6 -3 5 1 10 9 10 9 0 16 -2 16 -4z
m120 -20 c0 -31 -41 -49 -56 -24 -4 7 -3 8 4 4 7 -4 12 -1 12 8 0 9 9 16 20
16 11 0 20 -2 20 -4z m-460 -26 c0 -11 -6 -20 -14 -20 -7 0 -16 9 -19 20 -4
15 0 20 14 20 12 0 19 -7 19 -20z m-627 -87 c-7 -3 -13 -12 -14 -21 0 -11 -2
-13 -6 -4 -6 15 17 46 26 36 3 -4 0 -9 -6 -11z m772 7 c3 -5 1 -10 -4 -10 -6
0 -11 5 -11 10 0 6 2 10 4 10 3 0 8 -4 11 -10z m367 -40 c2 -17 -1 -24 -11
-22 -12 3 -12 0 -1 -12 17 -22 1 -20 -23 2 -11 9 -18 12 -14 7 3 -6 2 -17 -4
-25 -6 -11 -9 -3 -9 25 0 30 3 36 12 27 19 -19 28 -14 28 15 0 33 18 19 22
-17z m-1177 6 c-2 -13 -6 -32 -9 -43 -3 -10 -8 -47 -11 -83 -3 -35 -7 -66 -10
-68 -6 -6 29 -39 38 -35 4 2 7 -1 7 -6 0 -15 -30 -14 -31 2 0 10 -2 10 -6 0
-2 -7 -11 -13 -18 -13 -20 0 -22 17 -16 126 5 81 10 106 25 123 25 27 34 27
31 -3z m1022 -28 c-3 -8 -6 -5 -6 6 -1 11 2 17 5 13 3 -3 4 -12 1 -19z m318
-18 c3 -5 1 -10 -4 -10 -6 0 -11 5 -11 10 0 6 2 10 4 10 3 0 8 -4 11 -10z
m-585 -25 c0 -14 -4 -25 -10 -25 -5 0 -10 11 -10 25 0 14 5 25 10 25 6 0 10
-11 10 -25z m290 15 c0 -5 -9 -10 -21 -10 -11 0 -17 5 -14 10 3 6 13 10 21 10
8 0 14 -4 14 -10z m-890 -20 c0 -5 -5 -10 -11 -10 -5 0 -7 5 -4 10 3 6 8 10
11 10 2 0 4 -4 4 -10z m1129 -27 c6 -13 5 -22 -5 -31 -12 -11 -14 -8 -14 18 0
34 5 38 19 13z m-1248 -26 c-10 -9 -11 -8 -5 6 3 10 9 15 12 12 3 -3 0 -11 -7
-18z m1149 -10 c0 -21 -16 -47 -30 -47 -3 0 -6 16 -6 35 0 27 4 35 18 35 12 0
18 -8 18 -23z m198 -52 c-3 -3 -9 2 -12 12 -6 14 -5 15 5 6 7 -7 10 -15 7 -18z
m-1366 -7 c-7 -7 -12 -8 -12 -2 0 14 12 26 19 19 2 -3 -1 -11 -7 -17z m1268 8
c0 -8 -4 -18 -10 -21 -5 -3 -10 3 -10 14 0 12 5 21 10 21 6 0 10 -6 10 -14z
m217 -7 c6 -6 9 -18 6 -27 -4 -10 -2 -13 5 -8 8 5 12 -4 12 -29 0 -32 -2 -35
-19 -26 -13 8 -20 24 -23 56 -3 47 0 53 19 34z m-1407 -29 c0 -5 -5 -10 -11
-10 -5 0 -7 5 -4 10 3 6 8 10 11 10 2 0 4 -4 4 -10z m1056 -15 c9 -8 24 -15
35 -15 10 0 19 -4 19 -10 0 -5 -6 -7 -14 -4 -11 4 -17 -5 -22 -30 -3 -20 -10
-36 -15 -36 -13 0 -29 45 -29 81 0 33 5 35 26 14z m84 -1 c0 -8 -5 -12 -10 -9
-6 4 -8 11 -5 16 9 14 15 11 15 -7z m-1340 -38 c0 -7 -9 -65 -19 -127 -11 -63
-25 -163 -32 -224 -10 -79 -18 -114 -31 -127 -51 -51 -50 -15 12 337 20 110
38 155 62 155 4 0 8 -6 8 -14z m1409 -37 c-28 -22 -37 -20 -57 9 -13 20 -13
22 2 22 9 0 16 4 16 9 0 5 14 2 31 -6 l32 -16 -24 -18z m-559 16 c0 -18 -5
-25 -20 -25 -20 0 -20 1 -4 25 9 14 18 25 20 25 2 0 4 -11 4 -25z m453 -20
c-5 -13 -23 -22 -23 -11 0 15 14 35 21 31 4 -3 6 -12 2 -20z m-503 1 c0 -11
-19 -15 -25 -6 -3 5 1 10 9 10 9 0 16 -2 16 -4z m574 -53 c3 -7 1 -24 -4 -38
-11 -30 6 -35 26 -7 12 16 13 15 15 -8 1 -14 1 -28 0 -32 0 -4 6 -5 14 -2 18
7 27 36 19 60 -6 17 -4 16 17 -3 l23 -23 -34 -30 c-19 -16 -41 -27 -47 -25 -7
2 -13 0 -13 -6 0 -26 -50 -52 -50 -26 -1 6 -3 44 -6 84 -6 68 -5 72 15 70 11
-1 23 -7 25 -14z m46 1 c0 -8 -4 -12 -10 -9 -5 3 -10 10 -10 16 0 5 5 9 10 9
6 0 10 -7 10 -16z m-646 -10 c24 -9 20 -44 -4 -44 -15 0 -20 7 -20 25 0 27 1
28 24 19z m491 -4 c3 -5 1 -10 -4 -10 -6 0 -11 5 -11 10 0 6 2 10 4 10 3 0 8
-4 11 -10z m-1466 -186 c-12 -72 -29 -108 -29 -62 0 15 5 30 10 33 6 3 10 21
10 40 0 35 9 69 17 62 2 -3 -1 -36 -8 -73z m-9297 33 c28 -14 141 -13 146 1 4
12 127 5 153 -9 11 -6 20 -5 24 1 9 15 25 12 25 -4 0 -11 7 -13 30 -6 21 6 28
5 24 -2 -4 -6 -1 -9 7 -6 8 3 29 -1 48 -8 19 -8 42 -12 53 -8 10 3 18 1 18 -5
0 -13 47 -15 52 -3 5 13 68 -7 68 -22 0 -7 7 -13 16 -13 10 0 14 7 11 19 -7
27 2 22 13 -7 8 -22 13 -23 35 -15 17 7 25 6 25 -1 0 -7 13 -9 31 -7 20 3 33
0 36 -9 3 -7 12 -13 20 -13 8 0 28 -9 44 -21 18 -12 29 -16 29 -8 0 8 4 8 13
2 6 -6 24 -13 40 -17 15 -3 27 -13 27 -21 0 -12 -5 -12 -25 -3 -19 8 -28 8
-40 -2 -10 -8 -15 -9 -15 -1 0 6 -5 11 -11 11 -6 0 -8 -7 -5 -16 4 -11 1 -14
-12 -12 -9 2 -16 10 -15 16 4 17 -4 15 -27 -8 -23 -23 -46 -26 -65 -6 -18 18
-76 11 -93 -11 -12 -16 -13 -16 -19 6 l-6 25 -9 -23 c-4 -12 -12 -19 -18 -16
-5 3 -10 0 -10 -7 0 -10 -2 -10 -9 1 -5 8 -16 11 -26 7 -15 -5 -16 -4 -5 9 14
17 6 50 -11 40 -6 -4 -13 2 -16 14 -4 16 -11 20 -31 16 -15 -2 -36 4 -53 16
-17 12 -30 15 -34 9 -3 -5 -17 -7 -31 -4 -14 4 -24 2 -24 -5 0 -13 -72 -10
-82 4 -5 6 -8 4 -9 -5 0 -10 -3 -8 -9 5 -7 17 -9 17 -9 3 -1 -20 -31 -13 -31
7 0 15 -65 27 -99 18 -14 -4 -22 -2 -18 3 3 6 2 16 -4 24 -7 13 -9 13 -9 0 -1
-8 -6 -4 -12 10 l-10 25 -10 -25 c-6 -15 -12 -20 -15 -12 -3 6 -9 12 -14 12
-6 0 -7 -4 -4 -10 3 -5 1 -10 -4 -10 -6 0 -11 7 -11 15 0 8 -7 15 -15 15 -9 0
-12 6 -9 15 7 17 -9 19 -37 5 -13 -7 -19 -7 -19 0 0 5 7 10 16 10 14 0 14 3 4
15 -15 18 -1 19 32 2z m11008 -23 c0 -8 -5 -12 -10 -9 -6 4 -8 11 -5 16 9 14
15 11 15 -7z m-70 -5 c0 -5 5 -8 11 -6 6 1 14 -4 16 -11 3 -8 -1 -10 -13 -5
-16 6 -15 3 4 -22 15 -19 20 -35 16 -49 -13 -40 -59 -51 -61 -13 0 12 -4 42
-7 67 -6 41 -4 46 14 47 11 1 20 -2 20 -8z m83 -69 c-3 -11 -9 -20 -15 -20 -5
0 -4 9 2 20 6 11 12 20 14 20 2 0 2 -9 -1 -20z m-10566 -56 c-3 -4 -14 -3 -24
0 -15 6 -15 8 -3 16 16 10 39 -4 27 -16z m8399 -59 c8 -53 7 -66 -5 -70 -22
-8 -33 8 -38 59 -5 42 7 76 26 76 4 0 11 -29 17 -65z m1934 25 c0 -5 -4 -10
-10 -10 -5 0 -10 5 -10 10 0 6 5 10 10 10 6 0 10 -4 10 -10z m98 -12 c12 -6
22 -18 22 -25 0 -8 5 -11 11 -8 7 5 7 1 1 -11 -6 -11 -15 -30 -20 -44 l-11
-25 0 24 -1 24 -20 -26 c-11 -14 -20 -28 -20 -32 0 -3 9 -3 20 0 29 9 25 -10
-5 -23 -14 -6 -24 -8 -23 -4 0 4 -2 15 -7 25 -4 9 -5 32 -2 50 2 17 0 40 -5
50 -17 33 15 46 60 25z m81 1 c17 -6 31 -15 31 -20 0 -13 -5 -11 -42 11 -37
23 -35 25 11 9z m-11965 -24 c-7 -17 -20 -20 -28 -6 -4 5 0 12 6 14 23 9 28 7
22 -8z m41 -15 c3 -5 1 -10 -4 -10 -6 0 -11 5 -11 10 0 6 2 10 4 10 3 0 8 -4
11 -10z m12365 -51 c0 -21 -4 -39 -10 -39 -5 0 -10 21 -10 46 0 27 4 43 10 39
6 -3 10 -24 10 -46z m-11070 21 c0 -5 -7 -10 -16 -10 -8 0 -12 5 -9 10 3 6 10
10 16 10 5 0 9 -4 9 -10z m10609 -17 c8 -15 11 -15 28 -3 17 14 17 14 4 -3 -8
-10 -20 -16 -28 -13 -7 3 -13 1 -13 -4 0 -6 -4 -10 -10 -10 -5 0 -10 11 -10
25 0 29 15 33 29 8z m-1446 -24 c13 -13 13 -20 1 -49 -15 -35 -9 -57 7 -27 6
9 14 17 20 17 5 0 2 -11 -8 -24 -10 -13 -21 -22 -25 -20 -4 2 -9 0 -13 -6 -3
-5 -11 -10 -17 -10 -6 0 -5 7 3 17 10 11 10 14 2 9 -7 -4 -13 -2 -13 3 0 6 -4
11 -10 11 -5 0 -10 -7 -10 -15 0 -8 -4 -15 -8 -15 -5 0 -9 20 -9 45 0 26 4 42
10 38 6 -3 7 -1 3 6 -22 35 35 52 67 20z m1397 -84 c-6 -7 -20 -11 -30 -8 -25
7 -27 25 -2 21 10 -2 16 2 14 11 -3 12 0 12 13 1 11 -9 12 -16 5 -25z m75 -45
c0 -87 -20 -110 -28 -32 -5 45 -3 61 11 76 16 18 16 19 0 13 -10 -4 -18 -2
-18 4 0 6 8 9 18 7 14 -3 17 -14 17 -68z m35 60 c0 -5 -5 -10 -11 -10 -5 0 -7
5 -4 10 3 6 8 10 11 10 2 0 4 -4 4 -10z m34 -29 c-10 -11 -21 -18 -25 -15 -5
3 2 16 14 30 12 14 23 21 25 15 2 -5 -5 -19 -14 -30z m-13069 19 c-3 -5 -10
-10 -16 -10 -5 0 -9 5 -9 10 0 6 7 10 16 10 8 0 12 -4 9 -10z m13458 -61 c4
-29 5 -59 2 -67 -7 -18 -25 -5 -25 19 0 10 -6 19 -12 19 -10 0 -10 2 0 9 10 6
11 19 6 46 -5 30 -4 37 7 33 8 -3 17 -27 22 -59z m-585 21 c3 -21 2 -22 -12
-11 -19 16 -21 44 -3 39 6 -3 14 -15 15 -28z m66 -55 c7 -28 6 -28 -7 -11 -8
10 -19 16 -25 12 -19 -11 -14 6 5 20 10 7 18 12 19 11 1 -1 4 -15 8 -32z m181
-2 c5 -19 1 -25 -21 -33 -15 -6 -28 -9 -29 -8 -1 2 -7 13 -14 25 -13 25 -15
45 -3 25 7 -9 13 -8 27 8 20 22 29 18 40 -17z m-1795 -31 l-1 -27 -13 25 c-15
25 -12 45 5 35 5 -4 9 -18 9 -33z m-15372 2 c27 -8 29 -24 3 -24 -26 0 -51 10
-51 21 0 10 16 11 48 3z m16862 -34 c0 -4 -11 -5 -25 -2 -26 5 -31 -3 -16 -27
5 -8 14 -10 21 -6 8 5 11 3 8 -6 -5 -16 -46 -25 -59 -12 -14 14 1 50 24 60 23
10 47 7 47 -7z m-16793 4 c-3 -3 -12 -4 -19 -1 -8 3 -5 6 6 6 11 1 17 -2 13
-5z m16836 -50 c-7 -20 -19 -7 -27 31 l-6 30 19 -23 c11 -13 17 -30 14 -38z
m192 36 c3 -5 -1 -10 -9 -10 -9 0 -16 5 -16 10 0 6 4 10 9 10 6 0 13 -4 16
-10z m-195 -90 c0 -5 -4 -10 -10 -10 -5 0 -10 5 -10 10 0 6 5 10 10 10 6 0 10
-4 10 -10z m603 -68 c-16 -16 -17 -16 -10 1 4 10 7 33 8 50 l1 32 9 -33 c8
-26 6 -36 -8 -50z m-383 14 c0 -3 -4 -8 -10 -11 -5 -3 -10 -1 -10 4 0 6 5 11
10 11 6 0 10 -2 10 -4z m410 -67 c0 -6 7 -18 16 -26 8 -9 13 -24 11 -34 -3
-10 0 -20 6 -22 11 -3 4 -42 -12 -66 -8 -12 -11 -12 -23 0 -15 16 -23 173 -8
164 6 -4 10 -11 10 -16z m-23 -101 c-3 -8 -6 -5 -6 6 -1 11 2 17 5 13 3 -3 4
-12 1 -19z m-327 -119 c0 -5 -9 -9 -20 -9 -17 0 -19 2 -8 14 13 14 28 12 28
-5z m70 6 c0 -8 -4 -15 -10 -15 -5 0 -7 7 -4 15 4 8 8 15 10 15 2 0 4 -7 4
-15z m-142 -75 c1 -25 -2 -40 -9 -40 -7 0 -9 10 -7 25 4 18 1 25 -10 25 -12 0
-12 3 -2 15 19 23 25 18 28 -25z m-51 -8 c0 -15 6 -28 12 -30 18 -6 13 -57 -7
-75 -10 -10 -22 -14 -26 -10 -4 5 -13 8 -19 8 -7 0 -11 8 -11 18 1 9 -2 17 -7
17 -5 0 -9 7 -9 15 0 8 3 14 8 14 19 -3 25 2 12 11 -11 7 -11 10 -2 10 7 0 10
5 7 10 -4 6 -11 8 -16 5 -5 -4 -9 2 -9 12 0 13 9 18 33 20 28 1 32 -2 34 -25z
m119 -24 c3 6 10 12 16 12 6 0 5 -6 -2 -15 -7 -9 -19 -14 -27 -11 -7 3 -13 -1
-13 -11 0 -24 -6 -12 -14 26 l-6 33 21 -23 c14 -17 22 -20 25 -11z m-66 -118
c0 -5 -2 -10 -4 -10 -3 0 -8 5 -11 10 -3 6 -1 10 4 10 6 0 11 -4 11 -10z
m-897 -607 c-7 -2 -19 -2 -25 0 -7 3 -2 5 12 5 14 0 19 -2 13 -5z m-8648
-1033 c3 -5 -1 -10 -10 -10 -9 0 -13 5 -10 10 3 6 8 10 10 10 2 0 7 -4 10 -10z
m-7292 -7 c-18 -2 -48 -2 -65 0 -18 2 -4 4 32 4 36 0 50 -2 33 -4z m7487 -27
c0 -9 -8 -12 -25 -8 -28 5 -24 22 6 22 10 0 19 -6 19 -14z m62 -13 c-12 -2
-20 -9 -17 -14 4 -5 -1 -9 -9 -9 -9 0 -16 4 -16 9 0 12 19 20 45 19 17 -1 16
-1 -3 -5z m-5332 -13 c0 -5 -4 -10 -10 -10 -5 0 -10 5 -10 10 0 6 5 10 10 10
6 0 10 -4 10 -10z m5417 -6 c-3 -3 -12 -4 -19 -1 -8 3 -5 6 6 6 11 1 17 -2 13
-5z m-2699 -121 c-10 -2 -26 -2 -35 0 -10 3 -2 5 17 5 19 0 27 -2 18 -5z m100
-10 c-10 -2 -26 -2 -35 0 -10 3 -2 5 17 5 19 0 27 -2 18 -5z m877 -23 c3 -5
-1 -10 -9 -10 -8 0 -18 5 -21 10 -3 6 1 10 9 10 8 0 18 -4 21 -10z m8875 -172
c0 -4 -9 -8 -20 -8 -11 0 -20 4 -20 9 0 6 9 9 20 8 11 -1 20 -5 20 -9z
m-13790 -508 c0 -5 -7 -10 -16 -10 -8 0 -12 5 -9 10 3 6 10 10 16 10 5 0 9 -4
9 -10z m13277 -1642 c-3 -8 -6 -5 -6 6 -1 11 2 17 5 13 3 -3 4 -12 1 -19z
m4913 -42 c0 -3 -4 -8 -10 -11 -5 -3 -10 -1 -10 4 0 6 5 11 10 11 6 0 10 -2
10 -4z m-5092 -26 c-7 -10 -14 -17 -17 -15 -4 4 18 35 25 35 2 0 -1 -9 -8 -20z
m-28 -40 c0 -5 -5 -10 -11 -10 -5 0 -7 5 -4 10 3 6 8 10 11 10 2 0 4 -4 4 -10z
m4900 -344 c0 -11 -19 -15 -25 -6 -3 5 1 10 9 10 9 0 16 -2 16 -4z"/>
<path d="M16825 9050 c-3 -5 -1 -10 4 -10 6 0 11 5 11 10 0 6 -2 10 -4 10 -3
0 -8 -4 -11 -10z"/>
<path d="M16620 8840 c0 -5 7 -7 15 -4 8 4 15 8 15 10 0 2 -7 4 -15 4 -8 0
-15 -4 -15 -10z"/>
<path d="M16725 8780 c9 -30 13 -35 21 -27 3 3 -2 16 -11 29 l-17 23 7 -25z"/>
<path d="M16603 8765 c0 -8 4 -12 9 -9 4 3 8 9 8 15 0 5 -4 9 -8 9 -5 0 -9 -7
-9 -15z"/>
<path d="M17245 8735 c-4 -17 -8 -36 -11 -42 -7 -24 13 -13 24 13 8 16 9 31 3
42 -8 14 -11 12 -16 -13z"/>
<path d="M16550 8739 c0 -5 5 -7 10 -4 6 3 10 8 10 11 0 2 -4 4 -10 4 -5 0
-10 -5 -10 -11z"/>
<path d="M16585 8710 c-3 -5 -1 -10 4 -10 6 0 11 5 11 10 0 6 -2 10 -4 10 -3
0 -8 -4 -11 -10z"/>
<path d="M16811 8701 c-23 -15 2 -19 29 -5 22 12 22 14 5 14 -11 0 -26 -4 -34
-9z"/>
<path d="M17178 8673 c6 -2 18 -2 25 0 6 3 1 5 -13 5 -14 0 -19 -2 -12 -5z"/>
<path d="M17217 8650 c-18 -21 -13 -50 9 -50 9 0 14 12 14 35 0 19 -1 35 -3
35 -1 0 -10 -9 -20 -20z"/>
<path d="M16582 8640 c0 -14 2 -19 5 -12 2 6 2 18 0 25 -3 6 -5 1 -5 -13z"/>
<path d="M17120 8656 c0 -2 9 -6 20 -9 11 -3 18 -1 14 4 -5 9 -34 13 -34 5z"/>
<path d="M16540 8606 c0 -9 5 -16 10 -16 6 0 10 4 10 9 0 6 -4 13 -10 16 -5 3
-10 -1 -10 -9z"/>
<path d="M17328 8613 c-20 -5 -22 -12 -10 -30 5 -8 11 -3 19 13 6 13 10 23 10
23 -1 -1 -10 -3 -19 -6z"/>
<path d="M17285 8590 c3 -5 8 -10 11 -10 2 0 4 5 4 10 0 6 -5 10 -11 10 -5 0
-7 -4 -4 -10z"/>
<path d="M17213 8573 c-10 -3 -10 -9 0 -24 16 -26 27 -24 27 6 0 25 -4 28 -27
18z"/>
<path d="M16838 8553 c7 -3 16 -2 19 1 4 3 -2 6 -13 5 -11 0 -14 -3 -6 -6z"/>
<path d="M16771 8514 c0 -11 3 -14 6 -6 3 7 2 16 -1 19 -3 4 -6 -2 -5 -13z"/>
<path d="M16690 8509 c0 -5 5 -7 10 -4 6 3 10 8 10 11 0 2 -4 4 -10 4 -5 0
-10 -5 -10 -11z"/>
<path d="M16790 8499 c-14 -25 -9 -61 8 -67 8 -2 12 10 12 42 0 51 -4 56 -20
25z"/>
<path d="M17238 8514 c-3 -3 -4 -14 -1 -25 5 -18 6 -19 19 -2 7 10 14 21 14
26 0 8 -24 10 -32 1z"/>
<path d="M17137 8496 c-4 -10 -1 -13 9 -9 7 3 14 0 14 -7 0 -6 4 -9 10 -5 12
8 1 35 -15 35 -7 0 -15 -7 -18 -14z"/>
<path d="M16740 8488 c0 -9 5 -20 11 -23 17 -11 18 -2 3 19 -12 17 -14 17 -14
4z"/>
<path d="M17197 8439 c-4 -16 -3 -18 9 -8 7 6 11 15 8 20 -8 13 -11 11 -17
-12z"/>
<path d="M17053 8365 c0 -22 2 -30 4 -17 2 12 2 30 0 40 -3 9 -5 -1 -4 -23z"/>
<path d="M17160 8328 c-6 -34 -5 -98 1 -98 5 0 9 23 9 50 0 28 -2 50 -5 50 -3
0 -5 -1 -5 -2z"/>
<path d="M17250 8322 c0 -5 7 -9 15 -9 8 0 15 4 15 9 0 4 -7 8 -15 8 -8 0 -15
-4 -15 -8z"/>
<path d="M17225 8300 c3 -5 8 -10 11 -10 2 0 4 5 4 10 0 6 -5 10 -11 10 -5 0
-7 -4 -4 -10z"/>
<path d="M17260 8285 c0 -8 -9 -20 -20 -27 -28 -18 -25 -29 4 -18 19 7 26 5
30 -6 8 -20 8 -24 -1 -23 -24 4 -43 -3 -43 -15 0 -8 -5 -16 -10 -18 -16 -5 12
-58 31 -58 23 0 30 -10 19 -31 -7 -12 -6 -19 3 -22 9 -4 8 -8 -3 -17 -13 -9
-12 -11 5 -8 19 3 20 10 18 96 -2 81 -1 92 15 93 10 0 12 3 5 6 -7 2 -13 13
-13 23 0 11 -9 24 -20 30 -16 9 -20 8 -20 -5z m14 -140 c-4 -8 -11 -15 -16
-15 -6 0 -5 6 2 15 7 8 14 15 16 15 2 0 1 -7 -2 -15z"/>
<path d="M17050 8280 c-9 -6 -10 -10 -3 -10 6 0 15 5 18 10 8 12 4 12 -15 0z"/>
<path d="M17120 8255 c0 -8 -4 -15 -10 -15 -5 0 -10 -5 -10 -11 0 -14 18 -2
30 22 7 13 7 19 0 19 -5 0 -10 -7 -10 -15z"/>
<path d="M16914 8252 c-8 -5 -6 -13 6 -25 19 -20 34 -9 24 17 -7 18 -13 19
-30 8z"/>
<path d="M16766 8243 c5 -5 12 -12 15 -16 3 -5 9 -2 12 7 5 12 0 16 -15 16
-12 0 -17 -3 -12 -7z"/>
<path d="M16791 8164 c0 -11 3 -14 6 -6 3 7 2 16 -1 19 -3 4 -6 -2 -5 -13z"/>
<path d="M16787 8123 c-11 -10 -8 -53 3 -53 6 0 10 14 10 30 0 31 -2 35 -13
23z"/>
<path d="M17057 8044 c-6 -33 -1 -42 13 -28 7 7 7 20 2 34 -9 24 -9 24 -15 -6z"/>
<path d="M17109 8025 c-10 -10 -13 -28 -11 -50 6 -54 27 -43 28 15 1 28 0 50
0 50 -1 0 -9 -7 -17 -15z"/>
<path d="M16700 8020 c0 -5 5 -10 10 -10 6 0 10 5 10 10 0 6 -4 10 -10 10 -5
0 -10 -4 -10 -10z"/>
<path d="M17208 8013 c7 -3 16 -2 19 1 4 3 -2 6 -13 5 -11 0 -14 -3 -6 -6z"/>
<path d="M16866 7981 c-4 -7 -5 -15 -2 -18 9 -9 19 4 14 18 -4 11 -6 11 -12 0z"/>
<path d="M17238 7969 c-25 -20 -28 -49 -6 -49 5 0 6 5 3 11 -4 6 3 21 16 35
28 30 22 31 -13 3z"/>
<path d="M17400 7966 c0 -8 -9 -18 -20 -21 -11 -3 -20 -11 -20 -16 0 -10 7
-11 34 0 19 7 31 51 14 51 -4 0 -8 -6 -8 -14z"/>
<path d="M16975 7912 c-27 -15 -28 -17 -9 -20 16 -2 20 -9 16 -32 -2 -17 -9
-30 -16 -30 -6 0 -3 -5 7 -11 18 -11 23 -35 7 -41 -10 -3 -14 -82 -7 -145 4
-28 2 -42 -6 -40 -18 3 -21 -35 -3 -45 23 -13 20 -30 -6 -28 -13 1 -25 1 -28
0 -3 -1 -17 -4 -33 -6 -15 -1 -34 -10 -42 -18 -23 -23 -18 -30 10 -12 23 15
25 15 25 -1 0 -10 5 -25 11 -33 8 -12 9 -10 7 10 -2 21 2 26 25 28 16 2 25 8
21 14 -4 6 1 8 12 6 28 -5 30 -44 4 -51 -14 -3 -20 -12 -18 -24 2 -14 -3 -17
-26 -15 -20 3 -27 0 -23 -10 2 -7 11 -11 18 -9 8 2 27 4 43 5 33 2 46 22 19
29 -15 4 -15 5 -1 6 28 2 41 158 17 203 -9 17 -8 24 5 33 9 7 16 21 16 31 -1
18 -1 18 -11 2 -5 -10 -16 -18 -22 -18 -17 0 -9 70 8 77 8 2 12 12 11 21 -2 9
0 45 3 80 4 34 4 62 1 62 -3 -1 -18 -8 -35 -18z"/>
<path d="M17158 7923 c7 -3 16 -2 19 1 4 3 -2 6 -13 5 -11 0 -14 -3 -6 -6z"/>
<path d="M17280 7896 c0 -8 -5 -16 -12 -18 -7 -3 -8 -10 -4 -17 7 -11 10 -11
18 0 6 9 7 2 3 -20 -5 -23 -4 -31 4 -27 14 9 15 96 1 96 -5 0 -10 -6 -10 -14z"/>
<path d="M17340 7900 c0 -5 4 -10 10 -10 5 0 7 -7 4 -15 -5 -11 -2 -13 10 -9
10 4 15 13 12 21 -3 8 -6 17 -6 19 0 2 -7 4 -15 4 -8 0 -15 -4 -15 -10z"/>
<path d="M17395 7900 c3 -5 8 -10 11 -10 2 0 4 5 4 10 0 6 -5 10 -11 10 -5 0
-7 -4 -4 -10z"/>
<path d="M16900 7880 c6 -11 15 -20 20 -20 6 0 10 9 10 20 0 13 -7 20 -20 20
-18 0 -19 -3 -10 -20z"/>
<path d="M16910 7823 c0 -14 3 -23 7 -19 10 10 11 46 1 46 -4 0 -8 -12 -8 -27z"/>
<path d="M17345 7799 c-15 -29 -15 -31 1 -27 11 2 18 13 18 31 2 34 0 34 -19
-4z"/>
<path d="M16838 7779 c-11 -6 -18 -21 -18 -37 l1 -27 18 22 c18 22 19 22 24 3
3 -12 -1 -24 -10 -29 -14 -7 -14 -12 -2 -40 8 -17 17 -31 20 -31 10 0 2 131
-8 141 -4 4 -16 3 -25 -2z"/>
<path d="M16940 7780 c-8 -5 -12 -11 -9 -14 2 -3 11 -1 19 4 8 5 12 11 9 14
-2 3 -11 1 -19 -4z"/>
<path d="M17145 7780 c-3 -5 -4 -14 -1 -18 3 -5 -4 -23 -14 -40 -21 -34 -19
-38 10 -22 15 8 21 6 30 -10 19 -35 30 -22 26 30 -3 27 -7 54 -11 60 -8 13
-32 13 -40 0z"/>
<path d="M17282 7781 c4 -13 18 -16 19 -4 0 4 -5 9 -11 12 -7 2 -11 -2 -8 -8z"/>
<path d="M17048 7773 c7 -3 16 -2 19 1 4 3 -2 6 -13 5 -11 0 -14 -3 -6 -6z"/>
<path d="M17300 7753 c-31 -12 -56 -73 -30 -73 6 0 10 8 10 17 0 9 10 27 22
40 22 24 22 25 -2 16z"/>
<path d="M17030 7730 c0 -5 7 -7 15 -4 8 4 15 8 15 10 0 2 -7 4 -15 4 -8 0
-15 -4 -15 -10z"/>
<path d="M16937 7679 c-6 -24 1 -51 13 -44 7 5 5 53 -3 61 -2 3 -7 -5 -10 -17z"/>
<path d="M16080 7671 c-5 -11 -10 -26 -10 -35 0 -8 -4 -16 -9 -18 -5 -1 -3
-12 5 -22 13 -18 14 -18 14 -2 0 10 10 27 23 38 18 16 19 19 3 14 -15 -5 -18
-2 -14 19 6 30 2 32 -12 6z"/>
<path d="M17145 7670 c-3 -5 1 -10 9 -10 9 0 16 5 16 10 0 6 -4 10 -9 10 -6 0
-13 -4 -16 -10z"/>
<path d="M17182 7619 c3 -43 18 -47 18 -5 0 20 -5 36 -10 36 -6 0 -9 -14 -8
-31z"/>
<path d="M17270 7600 c-13 -8 -12 -10 3 -10 9 0 17 5 17 10 0 12 -1 12 -20 0z"/>
<path d="M17259 7568 c-6 -25 -3 -51 8 -60 7 -6 11 -19 8 -29 -4 -11 -2 -19 5
-19 6 0 8 -4 5 -10 -3 -5 -1 -10 5 -10 7 0 10 22 8 62 -2 50 -6 63 -20 66 -10
2 -18 2 -19 0z"/>
<path d="M17030 7520 c-13 -8 -12 -10 3 -10 9 0 17 5 17 10 0 12 -1 12 -20 0z"/>
<path d="M16326 7492 c-3 -5 -20 -7 -38 -5 -30 3 -31 2 -10 -7 25 -11 72 -4
72 11 0 11 -17 12 -24 1z"/>
<path d="M17180 7489 c0 -5 5 -7 10 -4 6 3 10 8 10 11 0 2 -4 4 -10 4 -5 0
-10 -5 -10 -11z"/>
<path d="M17055 7461 c6 -40 10 -45 24 -36 16 9 13 45 -3 45 -8 0 -17 6 -20
13 -4 6 -4 -3 -1 -22z"/>
<path d="M16800 7462 c0 -11 -5 -33 -11 -49 -8 -22 -12 -24 -19 -13 -17 26
-11 6 10 -35 11 -22 20 -47 20 -57 0 -9 4 -19 9 -22 8 -5 3 184 -5 193 -2 2
-4 -5 -4 -17z"/>
<path d="M17513 7457 c-11 -23 -10 -27 2 -27 8 0 15 -8 15 -17 0 -14 3 -14 12
-5 10 10 10 15 1 20 -6 4 -13 18 -14 32 l-4 24 -12 -27z"/>
<path d="M16256 7451 c-4 -7 -5 -15 -2 -18 9 -9 19 4 14 18 -4 11 -6 11 -12 0z"/>
<path d="M16135 7440 c-3 -5 -17 -10 -30 -10 -12 0 -25 -7 -29 -15 -7 -18 -7
-18 37 0 35 15 57 35 38 35 -5 0 -13 -4 -16 -10z"/>
<path d="M16775 7439 c-4 -6 -5 -12 -2 -15 2 -3 7 2 10 11 7 17 1 20 -8 4z"/>
<path d="M17604 7425 c3 -9 2 -13 -4 -10 -8 5 -30 -24 -30 -39 0 -8 43 16 52
29 12 15 10 22 -8 29 -12 5 -15 2 -10 -9z"/>
<path d="M16514 7405 c4 -16 12 -34 17 -40 5 -5 4 6 -2 25 -15 45 -24 54 -15
15z"/>
<path d="M17189 7400 c0 -10 -2 -11 -6 -2 -6 16 -32 16 -39 -1 -7 -20 13 -67
30 -67 16 0 28 -60 12 -61 -6 0 -2 -4 9 -9 11 -4 23 -5 27 -1 4 3 10 41 14 83
l6 76 -26 -2 c-15 0 -26 -7 -27 -16z"/>
<path d="M16840 7388 c0 -19 2 -20 10 -8 13 19 13 30 0 30 -5 0 -10 -10 -10
-22z"/>
<path d="M17478 7390 c-10 -9 -18 -22 -18 -28 0 -5 -6 -13 -12 -15 -7 -3 -3
-6 8 -6 26 -1 47 21 42 47 -3 18 -4 18 -20 2z"/>
<path d="M16246 7385 c-3 -8 -1 -15 4 -15 13 0 22 18 11 24 -5 3 -11 -1 -15
-9z"/>
<path d="M17021 7378 c-1 -27 -21 -51 -21 -26 0 8 -9 14 -20 15 -17 2 -18 -1
-10 -18 13 -23 7 -35 -20 -42 -16 -4 -24 2 -34 26 l-14 32 1 -42 c1 -23 4 -41
7 -41 23 1 27 -9 28 -77 1 -102 21 -136 23 -40 1 39 2 85 1 103 0 17 4 32 9
32 6 0 7 -4 4 -10 -9 -15 14 -12 31 4 7 8 19 16 26 18 9 3 9 15 1 49 -8 33
-11 37 -12 17z"/>
<path d="M16015 7380 c-3 -5 1 -10 10 -10 9 0 13 5 10 10 -3 6 -8 10 -10 10
-2 0 -7 -4 -10 -10z"/>
<path d="M17595 7359 c-4 -6 -5 -12 -2 -15 2 -3 7 2 10 11 7 17 1 20 -8 4z"/>
<path d="M17555 7349 c-9 -14 -2 -20 14 -10 8 6 9 11 3 15 -6 3 -14 1 -17 -5z"/>
<path d="M17115 7340 c-3 -5 1 -10 9 -10 9 0 16 5 16 10 0 6 -4 10 -9 10 -6 0
-13 -4 -16 -10z"/>
<path d="M17292 7305 c-7 -9 -8 -15 -2 -15 5 0 10 -9 10 -20 0 -13 -6 -20 -14
-18 -8 2 -15 -1 -15 -7 0 -5 7 -9 15 -7 19 4 18 -8 -3 -24 -16 -12 -16 -15 -3
-24 13 -9 13 -11 0 -20 -8 -5 -21 -10 -27 -10 -7 0 -13 -9 -13 -20 0 -11 7
-20 15 -20 8 0 15 4 15 9 0 5 12 16 26 26 24 16 26 16 31 -3 3 -12 13 -19 28
-19 21 0 25 6 31 42 11 77 0 92 -55 73 -19 -7 -22 -6 -17 8 16 42 18 64 5 64
-8 -1 -20 -7 -27 -15z"/>
<path d="M17528 7309 c-10 -5 -18 -20 -17 -32 0 -15 2 -17 6 -7 9 22 33 44 33
30 0 -6 5 -8 10 -5 14 9 12 25 -2 25 -7 0 -21 -5 -30 -11z"/>
<path d="M16848 7302 c-21 -4 -24 -22 -4 -22 8 0 21 -2 29 -5 8 -4 14 0 14 9
0 17 -14 24 -39 18z"/>
<path d="M17032 7280 c0 -14 2 -19 5 -12 2 6 2 18 0 25 -3 6 -5 1 -5 -13z"/>
<path d="M16131 7274 c0 -11 3 -14 6 -6 3 7 2 16 -1 19 -3 4 -6 -2 -5 -13z"/>
<path d="M17140 7270 c0 -11 2 -20 4 -20 2 0 6 9 9 20 3 11 1 20 -4 20 -5 0
-9 -9 -9 -20z"/>
<path d="M16906 7262 c-3 -6 -2 -13 3 -16 5 -3 7 -16 4 -29 -4 -19 -3 -19 6
-5 7 10 8 25 3 39 -5 14 -11 18 -16 11z"/>
<path d="M16245 7250 c-19 -7 -19 -8 -2 -15 10 -4 23 -3 29 3 14 14 -3 21 -27
12z"/>
<path d="M16055 7240 c-3 -5 -2 -10 4 -10 5 0 13 5 16 10 3 6 2 10 -4 10 -5 0
-13 -4 -16 -10z"/>
<path d="M17510 7240 c0 -5 5 -10 11 -10 5 0 7 5 4 10 -3 6 -8 10 -11 10 -2 0
-4 -4 -4 -10z"/>
<path d="M17004 7219 c34 -27 33 -55 -1 -67 l-28 -10 26 -1 c41 -1 76 53 43
66 -8 3 -13 11 -11 17 3 6 -8 12 -25 13 l-30 2 26 -20z"/>
<path d="M17125 7207 c-11 -20 -23 -37 -27 -37 -5 0 -8 -6 -8 -12 0 -7 14 1
31 18 18 18 29 39 27 49 -2 14 -8 10 -23 -18z"/>
<path d="M15989 7203 c-13 -17 -13 -17 6 -3 11 8 22 16 24 17 2 2 0 3 -6 3 -6
0 -17 -8 -24 -17z"/>
<path d="M16820 7120 c0 -5 7 -7 15 -4 8 4 15 8 15 10 0 2 -7 4 -15 4 -8 0
-15 -4 -15 -10z"/>
<path d="M16548 7098 c-2 -13 -1 -36 3 -53 5 -24 7 -20 8 23 1 54 -4 68 -11
30z"/>
<path d="M16670 7086 c0 -8 5 -18 10 -21 6 -3 10 3 10 14 0 12 -4 21 -10 21
-5 0 -10 -6 -10 -14z"/>
<path d="M17217 7093 c-2 -5 0 -21 4 -38 7 -29 7 -29 8 8 1 35 -3 46 -12 30z"/>
<path d="M17286 7071 c-4 -7 -5 -15 -2 -18 9 -9 19 4 14 18 -4 11 -6 11 -12 0z"/>
<path d="M16920 7049 c0 -5 5 -7 10 -4 6 3 10 8 10 11 0 2 -4 4 -10 4 -5 0
-10 -5 -10 -11z"/>
<path d="M16031 6924 c0 -11 3 -14 6 -6 3 7 2 16 -1 19 -3 4 -6 -2 -5 -13z"/>
<path d="M15894 6905 c-10 -8 -14 -15 -8 -15 6 0 17 7 24 15 16 19 9 19 -16 0z"/>
<path d="M17570 8310 c-8 -5 -11 -12 -7 -16 4 -4 13 -2 19 4 15 15 7 24 -12
12z"/>
<path d="M7285 8140 c3 -5 8 -10 11 -10 2 0 4 5 4 10 0 6 -5 10 -11 10 -5 0
-7 -4 -4 -10z"/>
<path d="M7316 8035 c8 -37 14 -45 14 -19 0 10 -5 26 -10 34 -8 11 -9 7 -4
-15z"/>
<path d="M7301 8014 c0 -11 3 -14 6 -6 3 7 2 16 -1 19 -3 4 -6 -2 -5 -13z"/>
<path d="M16160 7861 c0 -5 5 -13 10 -16 6 -3 10 -2 10 4 0 5 -4 13 -10 16 -5
3 -10 2 -10 -4z"/>
<path d="M17660 7061 c1 -25 1 -25 15 -7 19 25 19 33 0 33 -10 0 -15 -10 -15
-26z"/>
<path d="M185 10410 c-3 -5 3 -10 14 -10 12 0 21 5 21 10 0 6 -6 10 -14 10 -8
0 -18 -4 -21 -10z"/>
<path d="M230 10365 c7 -9 15 -13 17 -11 7 7 -7 26 -19 26 -6 0 -6 -6 2 -15z"/>
<path d="M81 10354 c0 -11 3 -14 6 -6 3 7 2 16 -1 19 -3 4 -6 -2 -5 -13z"/>
<path d="M157 10353 c-4 -3 -7 -11 -7 -17 0 -6 5 -5 12 2 6 6 9 14 7 17 -3 3
-9 2 -12 -2z"/>
<path d="M641 10311 c-7 -5 -12 -13 -10 -18 2 -6 13 -2 23 8 20 19 12 26 -13
10z"/>
<path d="M475 10290 c-3 -6 1 -7 9 -4 18 7 21 14 7 14 -6 0 -13 -4 -16 -10z"/>
<path d="M511 10281 c-7 -5 -12 -14 -10 -20 3 -7 11 -3 21 9 18 21 13 26 -11
11z"/>
<path d="M586 10253 c-4 -5 -20 -8 -34 -8 -17 0 -28 -6 -30 -17 -2 -10 1 -18
7 -18 6 0 8 7 5 15 -4 10 0 15 11 15 12 0 15 -6 10 -22 -4 -17 -4 -19 3 -9 7
9 19 11 36 7 23 -6 26 -3 26 19 0 24 -18 33 -34 18z"/>
<path d="M58 10243 c6 -2 18 -2 25 0 6 3 1 5 -13 5 -14 0 -19 -2 -12 -5z"/>
<path d="M328 10243 c7 -3 16 -2 19 1 4 3 -2 6 -13 5 -11 0 -14 -3 -6 -6z"/>
<path d="M118 10233 c7 -3 16 -2 19 1 4 3 -2 6 -13 5 -11 0 -14 -3 -6 -6z"/>
<path d="M521 10174 c0 -11 3 -14 6 -6 3 7 2 16 -1 19 -3 4 -6 -2 -5 -13z"/>
<path d="M385 10170 c-3 -5 -1 -10 4 -10 6 0 11 5 11 10 0 6 -2 10 -4 10 -3 0
-8 -4 -11 -10z"/>
<path d="M1505 8390 c-19 -8 -19 -9 2 -9 12 -1 25 4 28 9 7 12 -2 12 -30 0z"/>
<path d="M5060 7950 c0 -5 5 -10 10 -10 6 0 10 5 10 10 0 6 -4 10 -10 10 -5 0
-10 -4 -10 -10z"/>
<path d="M4638 7923 c7 -3 16 -2 19 1 4 3 -2 6 -13 5 -11 0 -14 -3 -6 -6z"/>
<path d="M4595 7890 c3 -5 10 -10 16 -10 5 0 9 5 9 10 0 6 -7 10 -16 10 -8 0
-12 -4 -9 -10z"/>
<path d="M298 7763 c7 -3 16 -2 19 1 4 3 -2 6 -13 5 -11 0 -14 -3 -6 -6z"/>
<path d="M105 6890 c-3 -5 -1 -10 4 -10 6 0 11 5 11 10 0 6 -2 10 -4 10 -3 0
-8 -4 -11 -10z"/>
<path d="M951 5496 c9 -9 293 -26 514 -31 239 -5 221 8 -35 23 -155 10 -487
15 -479 8z"/>
<path d="M3789 5454 c-6 -8 -15 -12 -19 -9 -4 3 -10 -1 -13 -8 -4 -10 21 -16
97 -25 127 -16 128 -16 144 -25 16 -10 1026 1 1055 12 18 7 13 10 -28 20 -72
17 -183 22 -505 22 -172 1 -336 7 -415 15 -162 18 -300 17 -316 -2z"/>
<path d="M3255 5432 c6 -5 57 -12 115 -16 129 -7 104 8 -30 18 -61 5 -91 4
-85 -2z"/>
<path d="M3085 5379 c17 -5 208 -11 425 -14 346 -3 384 -2 305 9 -111 15 -776
20 -730 5z"/>
</g>
</svg>
